<?xml version="1.0" encoding="UTF-8"?>
<svg xmlns="http://www.w3.org/2000/svg" viewBox="304 -127 1311 1311">
  <defs>
    <radialGradient id="g1" cx="340" cy="1000" r="1200" gradientUnits="userSpaceOnUse">
      <stop offset="0" stop-color="#bff0ff"/>
      <stop offset="0.22" stop-color="#3b86bf"/>
      <stop offset="0.55" stop-color="#083561"/>
      <stop offset="1" stop-color="#042448"/>
    </radialGradient>
    <radialGradient id="g2" cx="1580" cy="60" r="900" gradientUnits="userSpaceOnUse">
      <stop offset="0" stop-color="#a6d8f0" stop-opacity="0.9"/>
      <stop offset="0.5" stop-color="#1d547f" stop-opacity="0.25"/>
      <stop offset="1" stop-color="#083561" stop-opacity="0"/>
    </radialGradient>
    <clipPath id="tile">
      <rect x="304.08" y="-0.84" width="1310.21" height="1058.80" rx="218.51" ry="218.51"/>
    </clipPath>
  </defs>
  <g clip-path="url(#tile)">
    <rect x="304.08" y="-0.84" width="1310.21" height="1058.80" fill="url(#g1)"/>
    <rect x="304.08" y="-0.84" width="1310.21" height="1058.80" fill="url(#g2)"/>
  </g>
  <g fill="#ffffff">
    <path d="M951.58,207.85c48.99,0,97.56.85,145.87,3.98-8.17-45.3-25.73-87.98-71.17-114.29-42.16-24.91-100.23-24.62-142.02.72-28.34,16.79-48.36,42.89-59.16,71.58-5.21,13.52-9.06,27.89-12.06,42.49,46-3.04,91.96-4.25,138.55-4.48Z"/>
    <path d="M1490.44,585.7c-6.12-125.79-81.68-229.78-180.23-271.72-34.76-15.51-72.12-25.31-108.92-32.41-82.44-15.62-165.24-18.52-249.47-18.52-59.95.3-118.71,2.46-178.16,8.96-122.91,13.47-249.29,43.18-319.51,174.44-52.48,96.12-51.33,228.16,2.81,322.95,35.88,64.29,91.44,109.56,152.42,133.85,51.28,20.92,108.29,31.94,163.47,39.81,71.32,9.81,143.27,13.12,215.2,11.74,85.78-1.99,168.65-10.09,251.55-32.24l.27-.07c20.35-5.57,40.41-12.18,59.98-20.45,115.31-45.72,199.34-169.09,190.59-316.33ZM1171.78,793.76c-12.34,5.21-24.98,9.38-37.81,12.89l-.17.05c-52.26,13.96-104.5,19.07-158.58,20.33-45.34.87-90.7-1.22-135.67-7.4-34.79-4.96-70.73-11.91-103.06-25.1-38.45-15.31-73.47-43.85-96.09-84.38-34.13-59.76-34.85-143-1.77-203.59,44.27-82.75,123.94-101.48,201.43-109.97,37.48-4.1,74.52-5.46,112.31-5.65,53.1,0,105.29,1.83,157.27,11.68,23.2,4.47,46.75,10.65,68.67,20.43,62.12,26.44,109.76,92,113.62,171.29,5.52,92.83-47.46,170.6-120.15,199.42Z"/>
    <path d="M734.71,656.59c-4.39-16.42-5.99-32.84-6.39-49.83-.27-14.25.38-28.5,2.33-42.63,1.56-10.93,3.74-22.23,7.89-32.38,4.81-12.08,13.78-23.09,26.51-30.19,18.78-10.72,44.93-10.95,63.97-.56,26,13.91,31.89,38.95,34.56,63.29,1.29,11.78,1.72,23.42,1.78,35.29,0,16.68-.58,33.09-3.67,49.42-1.41,7.29-3.35,14.69-6.42,21.58-8.31,19.52-28.91,34.49-53.83,35.7-29.17,1.73-53.61-14.91-62.66-37.75-1.64-3.88-2.95-7.85-4.05-11.88v-.05Z"/>
    <path d="M1047.71,656.59c-4.39-16.42-5.99-32.84-6.39-49.83-.27-14.25.38-28.5,2.33-42.63,1.56-10.93,3.74-22.23,7.89-32.38,4.81-12.08,13.78-23.09,26.51-30.19,18.78-10.72,44.93-10.95,63.97-.56,26,13.91,31.89,38.95,34.56,63.29,1.29,11.78,1.72,23.42,1.78,35.29,0,16.68-.58,33.09-3.67,49.42-1.41,7.29-3.35,14.69-6.42,21.58-8.31,19.52-28.91,34.49-53.83,35.7-29.17,1.73-53.61-14.91-62.66-37.75-1.64-3.88-2.95-7.85-4.05-11.88v-.05Z"/>
  </g>
</svg>
